<svg id="_x33_0" fill="white" enable-background="new 0 0 64 64" height="512" viewBox="0 0 64 64" width="512" xmlns="http://www.w3.org/2000/svg"><g><path d="m29 13.585c-.535.535-1.465.535-2 0l-.293-.293-1.414 1.414.293.294c.646.645 1.503 1 2.414 1s1.769-.355 2.414-1l.293-.293-1.414-1.414z"/><path d="m63 18c0-4.962-4.037-9-9-9-2.873 0-5.429 1.358-7.078 3.459-.693-6.433-6.152-11.459-12.767-11.459h-5.493c-2.576 0-5.106.701-7.315 2.026-1.448.868-2.347 2.455-2.347 4.143 0 1.437.643 2.716 1.643 3.601l-.784 2.092c-1.037 2.768-3.226 4.935-6.005 5.945-4.1 1.491-6.854 5.423-6.854 9.785 0 2.504-1.104 4.859-3.027 6.462l-.575.479c-1.524 1.27-2.398 3.136-2.398 5.12 0 1.78.693 3.454 1.952 4.713l1.341 1.341 1.414-1.414-1.341-1.341c-.881-.881-1.366-2.053-1.366-3.299 0-1.389.611-2.695 1.679-3.584l.574-.479c2.382-1.984 3.747-4.899 3.747-7.998 0-3.524 2.226-6.701 5.537-7.905 3.329-1.211 5.951-3.807 7.194-7.123l.676-1.803c.195.061.388.119.593.155v2.841c0 .534-.208 1.036-.586 1.415l-.708.708c-.448.449-.706 1.071-.706 1.706 0 1.19.865 2.182 2 2.378v1.379c0 3.449 2.637 6.292 6 6.623v.7c0 .405-.241.768-.615.923-6.997 2.915-11.638 9.426-12.11 16.992l-.214 3.419h-7.061c-1.103 0-2 .897-2 2v2c-1.103 0-2 .897-2 2v4c0 1.103.897 2 2 2h50c1.103 0 2-.897 2-2v-4c0-1.103-.897-2-2-2v-2c0-1.103-.897-2-2-2h-4c-1.103 0-2 .897-2 2v2h-2v-2c0-1.103-.897-2-2-2h-.279l-.213-.64c-.293-.877-.293-1.843 0-2.72.244-.734.398-1.491.46-2.258l1.046 1.046c1.659 1.659 3.863 2.572 6.208 2.572 4.841 0 8.778-3.938 8.778-8.778v-14.222c0-.643-.208-1.237-.554-1.726 1.632-1.672 2.554-3.901 2.554-6.274zm-9-7c3.859 0 7 3.14 7 7 0 1.96-.812 3.79-2.232 5.112-.246-.066-.501-.112-.768-.112h-1.879c-1.308 0-2.427.811-2.89 1.955-3.499-.384-6.231-3.355-6.231-6.955 0-3.86 3.141-7 7-7zm-1.785 27.607c-3.43-3.703-7.732-6.501-12.531-8.1-.41-.136-.684-.517-.684-.948v-1.208l5.186-6.482c.414-.517.779-1.067 1.106-1.639.926 3.612 4.034 6.357 7.836 6.725.142.512.401.986.787 1.372l.963.963zm-10.491 1.78c.835 1.254 1.276 2.712 1.276 4.217 0 .818-.131 1.626-.391 2.404-.428 1.284-.428 2.699.001 3.984l.015.046c-.923.176-1.625.987-1.625 1.962v2h-2v-2c0-1.103-.897-2-2-2h-2c-1.103 0-2 .897-2 2v2h-2v-2c0-1.103-.897-2-2-2h-2c-.523 0-.995.206-1.352.536l.092-.646c.185-1.297.063-2.639-.35-3.881-.259-.779-.39-1.587-.39-2.405 0-1.505.441-2.963 1.276-4.216l.827-1.24-1.561-4.684c.34-.246.69-.48 1.05-.703l1.741 4.644c.583 1.552 2.088 2.595 3.746 2.595h3.759c1.725 0 3.249-1.099 3.794-2.735l1.664-4.99c.456.197.91.397 1.353.617l-1.752 5.256zm-4.724 14.613h-2v-2h2zm-8 0h-2v-2h2zm7-42c-.342 0-.677.035-1 .101v-10.058c.687.053 1.354.173 2 .349v9.71c-.323-.067-.658-.102-1-.102zm0 2c1.654 0 3 1.346 3 3s-1.346 3-3 3-3-1.346-3-3 1.346-3 3-3zm9-1.155c0 2.453-.844 4.859-2.377 6.775l-3.623 4.529v-3.174c1.207-.914 2-2.348 2-3.974s-.793-3.061-2-3.974v-9.871c3.551 1.784 6 5.452 6 9.689zm-22.625-9.104c1.899-1.139 4.073-1.741 6.287-1.741h4.338v8.257c-.636-.588-1.34-1.092-2.108-1.502.063-.243.108-.493.108-.755 0-1.654-1.346-3-3-3h-1v2h1c.552 0 1 .449 1 1s-.448 1-1 1h-4.169c-1.561 0-2.831-1.27-2.831-2.831 0-.989.526-1.919 1.375-2.428zm3.205 19.807c-.258-.474-.435-.993-.514-1.548h1.765c-.225.643-.667 1.188-1.251 1.548zm3.574 7.888c1.121-.468 1.846-1.555 1.846-2.769v-.803c1.265-.258 2.429-.879 3.365-1.814l.343-.343-1.416-1.413-.342.342c-.88.88-2.05 1.364-3.293 1.364-1.035 0-1.983-.351-2.757-.924 1.296-.918 2.1-2.416 2.1-4.076v-1h-4v-2h-1.586c-.228 0-.414-.186-.414-.414 0-.109.044-.216.121-.293l.707-.707c.756-.756 1.172-1.761 1.172-2.829v-2.757h3c.659 0 1.263-.22 1.759-.581 1.252.626 2.325 1.543 3.117 2.709-1.134.917-1.876 2.303-1.876 3.872 0 2.757 2.243 5 5 5 .342 0 .677-.035 1-.101v6.66c0 1.293.824 2.437 2.051 2.846.129.043.253.097.38.141l-1.696 5.087c-.273.818-1.035 1.367-1.897 1.367h-3.759c-.829 0-1.582-.521-1.873-1.298l-1.84-4.906c.261-.123.52-.249.788-.36zm-10.883 15.271c.291-4.653 2.337-8.86 5.614-11.894l1.012 3.039-.284.427c-1.055 1.583-1.613 3.424-1.613 5.325 0 1.033.166 2.054.493 3.036.315.95.408 1.976.267 2.967l-.628 4.393h-.132v-2c0-1.103-.897-2-2-2h-2.935zm-9.271 5.293h12v2h-12zm48.001 8h-50.001v-4h48 2zm-6.001-8h4v2h-4zm-6 2h-2v-2h2zm14-14.778c0 3.737-3.041 6.778-6.778 6.778-1.811 0-3.513-.705-4.793-1.985l-2.737-2.737c-.265-1.059-.689-2.076-1.304-2.999l-.284-.426 1.329-3.988c2.644 1.56 5.029 3.545 7.044 5.896l.092.108-.531 1.858 1.924.55 4.161-14.566-1.795-1.795c-.212-.214-.328-.495-.328-.795 0-.618.503-1.121 1.121-1.121h1.879c.552 0 1 .449 1 1z"/><path d="m54 23c2.757 0 5-2.243 5-5s-2.243-5-5-5-5 2.243-5 5 2.243 5 5 5zm0-8c1.654 0 3 1.346 3 3s-1.346 3-3 3-3-1.346-3-3 1.346-3 3-3z"/><path d="m13.051 30.135c1.041-2.083 2.933-3.601 5.191-4.165l-.484-1.94c-2.826.707-5.194 2.606-6.496 5.21l-.156.312 1.789.896z"/><path d="m9.071 39.629 1.857.742.574-1.436c.778-1.946 2.446-3.452 4.462-4.028 2.373-.678 4.365-2.332 5.469-4.539l.461-.921-1.789-.895-.461.921c-.853 1.707-2.395 2.986-4.229 3.51-2.606.744-4.764 2.691-5.771 5.208z"/></g></svg>