<?xml version="1.0" encoding="iso-8859-1"?>
<!-- Generator: Adobe Illustrator 19.0.0, SVG Export Plug-In . SVG Version: 6.00 Build 0)  -->
<svg fill="white" version="1.1" id="Capa_1" xmlns="http://www.w3.org/2000/svg" xmlns:xlink="http://www.w3.org/1999/xlink" x="0px" y="0px"
	 viewBox="0 0 512.002 512.002" style="enable-background:new 0 0 512.002 512.002;" xml:space="preserve">
<g>
	<g>
		<path d="M477.402,0H34.601C15.522,0,0,15.521,0,34.601v442.801c0,19.079,15.521,34.6,34.601,34.6h94.36c5.523,0,10-4.477,10-10
			s-4.477-10-10-10H97.524V20h379.878c8.05,0,14.6,6.55,14.6,14.601v442.801c0,8.05-6.55,14.6-14.6,14.6H207.929
			c-5.523,0-10,4.477-10,10s4.477,10,10,10h269.473c19.079,0,34.6-15.521,34.6-34.6V34.601C512.002,15.521,496.48,0,477.402,0z
			 M77.524,492.002H34.601c-8.051,0-14.601-6.55-14.601-14.6V34.601C20,26.55,26.55,20,34.601,20h42.923V492.002z"/>
	</g>
</g>
<g>
	<g>
		<path d="M221.291,348.393h-24.668c-5.523,0-10,4.477-10,10v62.192c0,5.523,4.477,10,10,10c5.523,0,10-4.477,10-10v-20.227h14.668
			c14.327,0,25.982-11.655,25.982-25.982C247.273,360.049,235.618,348.393,221.291,348.393z M221.291,380.358h-14.668v-11.965
			h14.668c3.243,0,5.982,2.74,5.982,5.983C227.273,377.619,224.534,380.358,221.291,380.358z"/>
	</g>
</g>
<g>
	<g>
		<path d="M376.92,348.393h-24.668c-5.523,0-10,4.477-10,10v62.192c0,5.523,4.477,10,10,10s10-4.477,10-10v-20.227h14.668
			c14.327,0,25.982-11.655,25.982-25.982C402.902,360.049,391.246,348.393,376.92,348.393z M376.92,380.358h-14.668v-11.964h14.668
			c3.242-0.001,5.982,2.739,5.982,5.982C382.902,377.619,380.162,380.358,376.92,380.358z"/>
	</g>
</g>
<g>
	<g>
		<path d="M299.974,348.393h-10.423c-13.848,0-25.114,13.611-25.114,30.341v21.51c0,16.73,11.266,30.341,25.114,30.341h10.423
			c13.848,0,25.114-13.611,25.114-30.341v-21.51C325.088,362.004,313.822,348.393,299.974,348.393z M305.088,400.245
			c0,6.314-3.358,10.341-5.114,10.341h-10.423c-1.756,0-5.114-4.027-5.114-10.341v-21.51c0-6.314,3.358-10.341,5.114-10.341h10.423
			c1.756-0.001,5.114,4.027,5.114,10.341V400.245z"/>
	</g>
</g>
<g>
	<g>
		<path d="M434.863,39.91h-0.475c-5.523,0-10,4.477-10,10c0,5.523,4.477,10,10,10h0.475c5.523,0,10-4.477,10-10
			C444.863,44.387,440.386,39.91,434.863,39.91z"/>
	</g>
</g>
<g>
	<g>
		<path d="M405.304,39.91h-41.438c-5.523,0-10,4.477-10,10c0,5.523,4.477,10,10,10h41.438c5.523,0,10-4.477,10-10
			C415.304,44.387,410.827,39.91,405.304,39.91z"/>
	</g>
</g>
<g>
	<g>
		<path d="M178.844,492.002h-0.475c-5.523,0-10,4.477-10,10s4.477,10,10,10h0.475c5.523,0,10-4.477,10-10
			S184.367,492.002,178.844,492.002z"/>
	</g>
</g>
<g>
	<g>
		<path d="M380.023,251.453l4.067-4.067c3.905-3.905,3.905-10.237,0-14.142l-64.765-64.766c11.7-18.203,9.604-42.769-6.308-58.681
			l-0.452-0.452l4.432-4.432c3.905-3.905,3.905-10.237,0-14.143c-3.905-3.905-10.237-3.905-14.143,0l-4.432,4.432l-0.451-0.451
			c-8.855-8.855-20.667-13.731-33.259-13.731c-12.592,0-24.404,4.877-33.258,13.731l-21.213,21.213h0.001
			c-8.855,8.854-13.731,20.666-13.731,33.258c0,12.593,4.876,24.404,13.731,33.259l0.452,0.452l-4.432,4.432
			c-3.905,3.905-3.905,10.237,0,14.143c1.953,1.953,4.512,2.929,7.071,2.929s5.119-0.976,7.071-2.929l4.432-4.432l0.452,0.452
			c9.17,9.17,21.212,13.755,33.258,13.753c8.855-0.001,17.709-2.489,25.423-7.447l64.766,64.766
			c1.875,1.875,4.419,2.929,7.071,2.929c2.652,0,5.196-1.054,7.071-2.929l2.877-2.877c6.84,9.358,7.403,15.117,7.237,17.45
			c-0.125,1.75-0.714,4.418-4.38,7.373c-15.78,12.721-38.657-3.225-69.252-27.141c-13.971-10.92-27.166-21.235-40.059-27.288
			c-17.034-7.998-31.292-6.995-42.379,2.983c-9.001,8.1-13.426,18.198-12.794,29.203c1.606,28.007,35.419,52.827,39.269,55.565
			c1.758,1.251,3.782,1.852,5.787,1.852c3.127,0,6.208-1.463,8.158-4.206c3.201-4.501,2.146-10.745-2.354-13.945
			c-7.729-5.496-29.993-24.716-30.893-40.411c-0.178-3.105,0.271-7.852,6.205-13.191c10.604-9.537,29.351,3.783,56.743,25.195
			c14.677,11.473,29.854,23.336,44.902,30.138c19.247,8.699,35.807,7.627,49.22-3.184c7.109-5.731,11.182-13.173,11.777-21.521
			C393.666,274.427,389.314,263.306,380.023,251.453z M224.836,168.79l-0.452-0.452c-5.077-5.077-7.874-11.866-7.874-19.116
			s2.797-14.038,7.874-19.115l21.213-21.213c5.077-5.077,11.866-7.873,19.116-7.873s14.039,2.796,19.117,7.873l0.451,0.451
			L224.836,168.79z M277.664,183.385c-10.541,10.541-27.691,10.542-38.232,0l-0.452-0.452l59.445-59.445l0.451,0.451
			c10.54,10.541,10.54,27.692,0,38.233L277.664,183.385z M355.807,247.387l-56.93-56.931l7.071-7.071l56.93,56.93L355.807,247.387z"
			/>
	</g>
</g>
<g>
</g>
<g>
</g>
<g>
</g>
<g>
</g>
<g>
</g>
<g>
</g>
<g>
</g>
<g>
</g>
<g>
</g>
<g>
</g>
<g>
</g>
<g>
</g>
<g>
</g>
<g>
</g>
<g>
</g>
</svg>
