<svg height="512pt" viewBox="-25 0 512 512.00014" width="512pt" xmlns="http://www.w3.org/2000/svg"><path d="m369.308594 318.953125h-8.394532v-151.082031h25.179688c4.636719 0 8.394531-3.757813 8.394531-8.394532 0-4.632812-3.757812-8.390624-8.394531-8.390624h-25.179688v-33.574219c0-1.660157-.492187-3.277344-1.410156-4.660157l-50.359375-75.539062c-.8125-1.214844-1.925781-2.195312-3.230469-2.855469l-67.148437-33.570312c-2.359375-1.183594-5.140625-1.183594-7.503906 0l-67.144531 33.570312c-1.304688.660157-2.417969 1.640625-3.234376 2.855469l-50.359374 75.539062c-.917969 1.382813-1.40625 3-1.410157 4.660157v201.441406h-8.390625c-41.699218.050781-75.492187 33.839844-75.542968 75.539063v109.113281c0 4.636719 3.757812 8.394531 8.394531 8.394531h402.882812c4.632813 0 8.390625-3.757812 8.390625-8.394531v-109.113281c-.050781-41.699219-33.839844-75.488282-75.539062-75.539063zm-226.621094 176.261719h-33.574219v-75.542969c0-4.632813-3.757812-8.390625-8.394531-8.390625-4.632812 0-8.390625 3.757812-8.390625 8.390625v75.542969h-50.359375v-100.722656c.035156-32.433594 26.320312-58.714844 58.75-58.753907h41.96875zm0-176.261719h-16.785156v-95.273437c3.921875 1.914062 8.222656 2.921874 12.589844 2.945312h4.195312zm0-109.113281h-4.195312c-6.953126 0-12.589844-5.636719-12.589844-12.589844s5.636718-12.589844 12.589844-12.589844h4.195312zm167.867188 285.375h-151.082032v-159.476563h8.394532v19.632813c.078124 29.722656 13.265624 57.894531 36.042968 76.992187-1.621094 3.964844-2.457031 8.207031-2.46875 12.488281 0 18.542969 15.03125 33.574219 33.574219 33.574219s33.574219-15.03125 33.574219-33.574219c-.011719-4.28125-.851563-8.523437-2.46875-12.488281 22.777344-19.097656 35.964844-47.269531 36.039062-76.992187v-19.632813h8.394532zm-89.867188-279.441406 8.394531 8.394531c3.332031 3.21875 8.644531 3.125 11.867188-.207031 3.140625-3.253907 3.140625-8.410157 0-11.664063l-4.726563-4.726563 4.84375-14.519531h3.535156c3.8125 14.777344 17.117188 25.125 32.378907 25.179688h16.789062c2.355469-.003907 4.703125-.261719 7.007813-.761719l-3.359375 20.144531c-1.988281 12.089844-7.726563 23.246094-16.40625 31.894531-10.164063 10.199219-23.984375 15.914063-38.382813 15.871094h-15.226562c-14.402344.035156-28.222656-5.6875-38.382813-15.898437-8.679687-8.644531-14.417969-19.804688-16.410156-31.894531l-3.355469-20.144532c2.300782.511719 4.648438.777344 7.007813.789063h16.785156c10.246094-.035157 19.910156-4.773438 26.214844-12.847657l-.605469 1.804688c-1.003906 3.015625-.21875 6.339844 2.03125 8.585938zm5.933594-39.507813v-8.394531h16.785156v8.394531zm33.574218 8.394531v-16.789062h48.839844l-5.035156 29.964844c-2.910156 2.3125-6.511719 3.585937-10.230469 3.609374h-16.789062c-9.269531 0-16.785157-7.515624-16.785157-16.785156zm-25.179687 226.621094c-7.695313.035156-15.140625 2.734375-21.066406 7.644531-18.542969-15.917969-29.238281-39.117187-29.292969-63.554687v-7.042969c15.792969 27.816406 51.144531 37.558594 78.957031 21.761719 9.085938-5.15625 16.601563-12.675782 21.761719-21.761719v7.019531c-.058594 24.433594-10.75 47.636719-29.292969 63.554688-5.929687-4.90625-13.375-7.597656-21.066406-7.621094zm16.785156 33.570312c0 9.273438-7.515625 16.789063-16.785156 16.789063-9.273437 0-16.789063-7.515625-16.789063-16.789063 0-9.269531 7.515626-16.785156 16.789063-16.785156 9.269531 0 16.785156 7.515625 16.785156 16.785156zm16.789063-109.113281h4.378906c-8.84375 20.960938-33.003906 30.785157-53.96875 21.941407-9.890625-4.171876-17.765625-12.046876-21.941406-21.941407h4.382812c4.636719 0 8.394532-3.757812 8.394532-8.390625v-27.449218c5.738281 1.484374 11.640624 2.246093 17.566406 2.265624h15.226562c5.925782-.019531 11.828125-.78125 17.566406-2.265624v27.449218c0 4.632813 3.757813 8.390625 8.394532 8.390625zm-58.753906-151.078125c0 9.269532-7.515626 16.785156-16.789063 16.785156h-16.785156c-3.734375-.015624-7.351563-1.289062-10.273438-3.609374l-4.996093-29.964844h48.84375zm-32.683594 96.691406c4.726562 4.726563 10.09375 8.765626 15.945312 12 0 .144532-.082031.269532-.082031.421876v25.179687h-33.542969v-65.746094c3.71875 10.582031 9.757813 20.199219 17.679688 28.144531zm133.402344 37.601563h-33.574219v-25.179687c0-.152344-.074219-.277344-.082031-.421876 5.851562-3.234374 11.21875-7.273437 15.945312-12 7.933594-7.941406 13.984375-17.558593 17.710938-28.144531zm0-167.867187h-151.082032v-5.039063c.121094-15.003906 8.113282-28.839844 21.050782-36.441406l54.492187-40.398438 55.160156 40.824219c12.621094 7.621094 20.34375 21.277344 20.378907 36.015625zm-11.0625-54.984376-59.441407-44.058593c-2.96875-2.195313-7.019531-2.195313-9.988281 0l-58.835938 43.644531c-17.652343 10.652344-28.472656 29.742188-28.539062 50.359375v21.824219h-4.195312c-4.367188.023437-8.667969 1.03125-12.589844 2.945312v-50.789062l47.714844-71.566406 61.398437-30.679688 61.398437 30.703125 47.714844 71.542969v31.058594h-16.785156v-5.039063c.023438-20.355469-10.519531-39.265625-27.851562-49.945313zm32.046874 113.738282h-4.195312v-25.179688h4.195312c6.953126 0 12.589844 5.636719 12.589844 12.589844s-5.636718 12.589844-12.589844 12.589844zm12.589844 13.839844v95.273437h-16.785156v-92.328125h4.195312c4.363282-.023438 8.667969-1.03125 12.589844-2.945312zm-12.589844-55.808594h12.589844v2.945312c-3.921875-1.914062-8.226562-2.921875-12.589844-2.945312zm96.523438 327.34375h-50.359375v-75.542969c0-4.632813-3.757813-8.390625-8.394531-8.390625-4.636719 0-8.394532 3.757812-8.394532 8.390625v75.542969h-33.570312v-159.476563h41.964844c32.433594.039063 58.714844 26.320313 58.753906 58.753907zm0 0"/><path d="m210.722656 239.660156c-2.070312 4.144532-.390625 9.1875 3.753906 11.261719.003907 0 .003907 0 .007813.003906 12.929687 6.433594 28.128906 6.433594 41.058594 0 4.164062-2.042969 5.886719-7.070312 3.84375-11.230469-2.039063-4.164062-7.066407-5.886718-11.230469-3.84375-.039062.019532-.078125.039063-.117188.058594-8.207031 4.078125-17.851562 4.078125-26.058593 0-4.144531-2.070312-9.183594-.390625-11.257813 3.75zm0 0"/><path d="m251.800781 117.511719h-33.574219c-4.632812 0-8.390624 3.757812-8.390624 8.394531 0 4.632812 3.757812 8.390625 8.390624 8.390625h33.574219c4.636719 0 8.394531-3.757813 8.394531-8.390625 0-4.636719-3.757812-8.394531-8.394531-8.394531zm0 0"/><path d="m428.0625 33.578125h16.785156v16.785156h-16.785156zm0 0"/><path d="m428.0625 67.152344h16.785156v16.785156h-16.785156zm0 0"/><path d="m411.277344 50.363281h16.785156v16.789063h-16.785156zm0 0"/><path d="m444.847656 50.363281h16.789063v16.789063h-16.789063zm0 0"/><path d="m25.179688 159.476562h16.789062v16.789063h-16.789062zm0 0"/><path d="m25.179688 209.839844h16.789062v16.785156h-16.789062zm0 0"/><path d="m0 184.660156h16.785156v16.785156h-16.785156zm0 0"/><path d="m50.359375 184.660156h16.789063v16.785156h-16.789063zm0 0"/></svg>