<svg height="512pt" viewBox="-46 0 512 512" width="512pt" xmlns="http://www.w3.org/2000/svg"><path d="m127.816406 294.121094c4.140625 0 7.5-3.355469 7.5-7.5v-15.925782c0-4.140624-3.359375-7.5-7.5-7.5s-7.5 3.359376-7.5 7.5v15.925782c0 4.144531 3.359375 7.5 7.5 7.5zm0 0"/><path d="m138.660156 302.527344h-21.6875c-4.144531 0-7.5 3.359375-7.5 7.5 0 4.144531 3.355469 7.5 7.5 7.5h21.6875c4.140625 0 7.5-3.355469 7.5-7.5 0-4.140625-3.359375-7.5-7.5-7.5zm0 0"/><path d="m291.617188 294.121094c4.144531 0 7.5-3.355469 7.5-7.5v-15.925782c0-4.140624-3.355469-7.5-7.5-7.5-4.140626 0-7.5 3.359376-7.5 7.5v15.925782c0 4.144531 3.359374 7.5 7.5 7.5zm0 0"/><path d="m280.773438 317.527344h21.691406c4.140625 0 7.5-3.355469 7.5-7.5 0-4.140625-3.359375-7.5-7.5-7.5h-21.691406c-4.140626 0-7.5 3.359375-7.5 7.5 0 4.144531 3.359374 7.5 7.5 7.5zm0 0"/><path d="m229.300781 325.230469c-3.117187-2.726563-7.855469-2.410157-10.582031.710937-2.175781 2.488282-5.457031 3.914063-9 3.914063-3.546875 0-6.828125-1.425781-9.003906-3.914063-2.726563-3.121094-7.464844-3.4375-10.582032-.710937-3.121093 2.726562-3.4375 7.464843-.710937 10.582031 5.023437 5.75 12.421875 9.046875 20.296875 9.046875 7.871094 0 15.269531-3.296875 20.292969-9.046875 2.726562-3.121094 2.410156-7.859375-.710938-10.582031zm0 0"/><path d="m393.171875 256.347656c3.046875-6.277344 14.1875-30.484375 20.972656-61.992187 5.792969-26.914063 6.832031-51.886719 3.089844-74.234375-5.945313-35.496094-23.816406-63.675782-53.121094-83.761719-35.203125-24.128906-87.148437-36.359375-154.394531-36.359375-67.25 0-119.195312 12.230469-154.394531 36.359375-29.308594 20.085937-47.183594 48.269531-53.125 83.769531-3.742188 22.34375-2.703125 47.316406 3.089843 74.230469 6.785157 31.5 17.925782 55.707031 20.972657 61.984375.703125 19.984375 4.671875 36.554688 8.195312 51.210938 6.808594 28.296874 11.300781 46.992187-6.914062 85.082031-7.097657 14.84375-.597657 33.167969 14.207031 40.25 14.820312 7.085937 33.164062.609375 40.25-14.207031 2.316406-4.84375 4.359375-9.523438 6.183594-14.074219 13.078125 11.546875 27.53125 21.070312 42.980468 28.378906-10.894531 13.09375-30.09375 40.550781-30.09375 71.515625 0 4.140625 3.359376 7.5 7.5 7.5h202.289063c4.140625 0 7.5-3.359375 7.5-7.5 0-30.964844-19.195313-58.421875-30.09375-71.515625 15.453125-7.308594 29.90625-16.832031 42.984375-28.378906 1.824219 4.550781 3.863281 9.230469 6.183594 14.074219 7.074218 14.792968 25.472656 21.273437 40.25 14.207031 14.835937-7.09375 21.308594-25.402344 14.207031-40.25-18.21875-38.089844-13.722656-56.785157-6.917969-85.082031 3.523438-14.65625 7.496094-31.21875 8.199219-51.207032zm-329.371094-207.617187c32.660157-22.382813 81.753907-33.730469 145.917969-33.730469s113.253906 11.347656 145.914062 33.730469c20.914063 14.335937 35.222657 33.367187 42.6875 56.734375-22.121093-12.488282-46.019531-21.753906-70.5-28.425782-38.433593-10.46875-78.296874-15.382812-118.101562-15.382812-39.441406 0-78.992188 4.679688-117.066406 15.109375-4.140625 1.132813-6.558594 5.945313-5.011719 9.945313 1.355469 3.511718 5.351563 5.511718 8.972656 4.523437 35.308594-9.675781 73.359375-14.578125 113.105469-14.578125 39.578125 0 79.488281 4.800781 117.570312 15.769531 26.527344 7.636719 52.449219 18.308594 75.648438 33.386719 2.394531 16.730469 1.914062 35.140625-1.4375 54.898438-15.835938-9.246094-32.691406-16.703126-49.972656-22.796876-6.207032-2.1875-12.480469-4.195312-18.796875-6.039062-3.910157-1.140625-8.164063 1.199219-9.300781 5.101562-1.144532 3.925782 1.183593 8.15625 5.101562 9.300782 24.15625 7.042968 48.148438 16.71875 69.796875 30.023437-5.054687 21.308594-12.074219 38.820313-16.101563 47.9375-1.519531-.757812-3.035156-1.5-4.550781-2.230469-.078125-.035156-.15625-.074218-.234375-.109374-66.6875-32.066407-131.882812-35.554688-157.808594-35.496094-6.605468.019531-13.226562.019531-19.839843 0-25.867188-.058594-91.03125 3.425781-157.679688 35.4375-.082031.039062-.164062.078125-.246093.117187-1.554688.746094-3.105469 1.503907-4.660157 2.285157-4.027343-9.125-11.050781-26.632813-16.101562-47.945313.027343-.015625.050781-.035156.078125-.050781 12.757812-7.824219 26.285156-14.375 40.191406-19.890625 46.859375-18.609375 98.082031-26.269531 148.339844-26.269531 30.246094 0 60.535156 2.867187 90.15625 9.046874 4.199218.875 8.546875-2.289062 8.996094-6.566406.394531-3.78125-2.214844-7.339844-5.929688-8.117187-30.621094-6.390625-61.949219-9.359375-93.222656-9.359375-51.167969 0-102.800782 7.65625-150.6875 26.105468-14.179688 5.464844-27.792969 11.769532-40.925782 19.421876-.054687.03125-.113281.0625-.171874.097656-3.347657-19.765625-3.832032-38.183594-1.433594-54.917969.050781-.03125.101562-.066406.148437-.097656 16.269531-10.582031 33.96875-18.914063 52.160157-25.601563 3.894531-1.4375 6.191406-5.714844 4.722656-9.722656-1.40625-3.828125-5.800782-5.863281-9.625-4.457031-14.734375 5.40625-29.113282 11.84375-42.792969 19.550781 7.46875-23.367188 21.777344-42.402344 42.691406-56.738281zm262.480469 244.707031c-2.871094 11.941406-5.882812 24.476562-7.078125 38.523438-6.179687 2.804687-12.972656 4.246093-20.269531 4.246093-23.675782 0-32.417969-8.648437-42.535156-18.664062-10.019532-9.917969-21.375-21.15625-46.683594-21.15625s-36.664063 11.238281-46.683594 21.15625c-10.117188 10.015625-18.855469 18.664062-42.535156 18.664062-7.296875 0-14.089844-1.441406-20.269532-4.246093-1.191406-14.042969-4.207031-26.582032-7.078124-38.519532-4.0625-16.898437-7.910157-32.925781-6.175782-53.578125 49.25-16.394531 92.9375-18.507812 112.777344-18.460937 6.640625.019531 13.289062.019531 19.921875 0 19.796875-.046875 63.515625 2.0625 112.78125 18.464844 1.738281 20.652343-2.109375 36.675781-6.171875 53.570312zm-257.8125 118.773438c-3.5625 7.445312-12.8125 10.699218-20.246094 7.144531-7.46875-3.570313-10.71875-12.78125-7.148437-20.25 20.515625-42.890625 14.976562-65.910157 7.96875-95.058594-3.320313-13.804687-6.742188-28.042969-7.664063-45.101563.09375-.046874.1875-.09375.277344-.140624 9.597656-4.90625 19.625-9.394532 29.964844-13.398438-.667969 19.867188 3.191406 35.925781 6.945312 51.539062 3.003906 12.496094 6.050782 25.164063 6.929688 39.320313-.015625.277344-.027344.558594-.011719.839844.921875 17.054687-1.542969 34.035156-7.539063 51.910156-.039062.113281-.054687.230469-.089843.34375-2.433594 7.175781-5.519531 14.765625-9.386719 22.851563zm120.320312 37.109374c13.894532 1.574219 27.9375 1.550782 41.835938 0 1.40625-.15625 2.804688-.332031 4.203125-.519531-2.636719 11.425781-12.894531 19.972657-25.109375 19.972657-12.21875 0-22.476562-8.546876-25.113281-19.972657 1.390625.1875 2.785156.363281 4.183593.519531zm-52.574218 1.746094v45.933594h-19.683594c2.15625-17.960938 11.554688-34.539062 19.683594-45.933594zm15-10.027344c5.851562 1.957032 11.808594 3.625 17.859375 4.980469 1.546875 21.078125 19.179687 37.753907 40.644531 37.753907 21.460938 0 39.09375-16.675782 40.644531-37.753907 6.046875-1.355469 12.003907-3.023437 17.855469-4.980469v55.960938h-117.003906zm132.003906 55.960938v-45.976562c8.132812 11.378906 17.535156 27.953124 19.6875 45.976562zm-9.609375-73.964844c-40.21875 16.429688-87.28125 16.542969-127.773437.003906-19.128907-7.8125-36.804688-19.167968-52.195313-33.753906 4.699219-15.210937 6.707031-28.742187 7.046875-41.078125 6.246094 1.992188 12.871094 3 19.808594 3 29.847656 0 42.195312-12.222656 53.089844-23.003906 9.492187-9.394531 16.988281-16.816406 36.128906-16.816406s26.640625 7.421875 36.132812 16.816406c10.890625 10.78125 23.238282 23.003906 53.085938 23.003906 6.9375 0 13.5625-1.007812 19.808594-3 .34375 12.335938 2.347656 25.867188 7.050781 41.078125-15.390625 14.582032-33.058594 25.9375-52.183594 33.75zm105.261719-12.359375c-1.304688 3.699219-3.976563 6.917969-7.660156 8.679688-7.453126 3.5625-16.679688.308593-20.246094-7.144531-3.867188-8.085938-6.953125-15.675782-9.390625-22.851563-.03125-.113281-.050781-.230469-.085938-.34375-6-17.875-8.464843-34.855469-7.539062-51.90625.015625-.285156.003906-.566406-.011719-.847656.878906-14.15625 3.921875-26.820313 6.925781-39.316407 3.753907-15.609374 7.617188-31.667968 6.945313-51.535156 7.828125 3.03125 15.472656 6.332032 22.914062 9.898438 2.371094 1.136718 4.71875 2.304687 7.039063 3.492187.097656.046875.195312.097657.289062.144531-.917969 17.0625-4.34375 31.296876-7.660156 45.101563-7.011719 29.144531-12.546875 52.167969 7.964844 95.058594 1.765625 3.691406 1.824219 7.871093.515625 11.570312zm0 0"/></svg>