<svg id="Layer_1" height="512" viewBox="0 0 512 512" width="512" xmlns="http://www.w3.org/2000/svg" data-name="Layer 1"><path d="m256.764 473.029v-142.916l-1.8 3.193a4.972 4.972 0 0 1 -.6.844 9 9 0 0 1 -6.77 3.07h-.014a9 9 0 0 1 -6.774-3.09 5.055 5.055 0 0 1 -.591-.839l-.4-.706v140.444a37.972 37.972 0 0 0 16.949 0z"/><path d="m193.074 484.472c3.842 3.562 23.766 9.13 55.222 9.13s51.38-5.568 55.222-9.13c-2.665-2.377-13.913-6.751-36.754-8.472v.812a5 5 0 0 1 -3.419 4.744 47.889 47.889 0 0 1 -30.1 0 5 5 0 0 1 -3.419-4.744v-.812c-22.84 1.721-34.087 6.1-36.752 8.472z"/><path d="m367.979 132.289q1.479-.976 2.871-2.059l-1.1-1.1z"/><path d="m346 83.725 25.351-25.351a45.425 45.425 0 0 0 -25.351-9.899z"/><path d="m388.125 91.409a4.788 4.788 0 0 1 .3.591h.1a45.55 45.55 0 0 0 -10.081-26.567l-23.461 23.46 28.839.038a5 5 0 0 1 4.303 2.478z"/><path d="m378.035 123.272a45.8 45.8 0 0 0 9.842-21.272h-2.87l-10.164 18.08z"/><path d="m120.175 98.583 30.375 54.21a47.261 47.261 0 0 1 11.593 6.818c5.2 3.833 9.687 7.143 19.064 7.155h.053c9.342 0 13.831-3.292 19.03-7.1 1.688-1.238 3.448-2.522 5.4-3.722l-17.643-57.271z"/><path d="m250.286 159.727c5.2 3.833 9.686 7.143 19.064 7.155h.051c9.345 0 13.835-3.293 19.035-7.105 5.779-4.237 12.331-9.04 24.946-9.04h.065c12.66.016 19.21 4.846 24.989 9.106.618.456 1.225.9 1.831 1.334l35-62.258-160-.21 16.124 52.339c8.82 1.265 14.125 5.162 18.895 8.679z"/><path d="m243.283 233.811a12.993 12.993 0 0 1 -16.251-8.6l-18.277-59.326c-.848.59-1.69 1.2-2.551 1.837-5.78 4.237-12.33 9.04-24.944 9.04h-.067a35.29 35.29 0 0 1 -20.562-5.981l86.969 155.219 87.74-156.059c-.974-.681-1.917-1.37-2.838-2.049-5.2-3.832-9.689-7.143-19.068-7.155h-.052c-9.343 0-13.834 3.293-19.033 7.105-5.78 4.238-12.332 9.04-24.948 9.04h-.065c-12.658-.016-19.207-4.845-24.985-9.106-3.047-2.247-5.858-4.308-9.546-5.637l17.074 55.421a13.014 13.014 0 0 1 -8.596 16.251zm-31.206-14.523a5 5 0 0 1 -6.806-1.918l-5.455-9.735a5 5 0 1 1 8.724-4.888l5.46 9.735a5 5 0 0 1 -1.923 6.806zm28.828 51.45a5 5 0 0 1 -6.806-1.918l-19.799-35.329a5 5 0 0 1 8.724-4.887l19.8 35.328a5 5 0 0 1 -1.919 6.806z"/><path d="m297.481 88.817 30.809.04-21.611-22.6a45.428 45.428 0 0 0 -9.198 22.56z"/><path d="m336 48.877a45.538 45.538 0 0 0 -22.391 10.153l22.391 23.422z"/><path d="m342.873 38.356a55.734 55.734 0 0 1 16.692 108.9l-5.661 10.07a64.2 64.2 0 0 0 -11.031-127.438c-33.609 0-61.247 26.273-63.933 58.9l8.482.012a55.521 55.521 0 0 1 55.451-50.444z"/><path d="m111.1 44.267 63.954-14.939 59.623 193.531a5 5 0 1 0 9.557-2.944l-61-197.989a5 5 0 0 0 -5.915-3.4l-68.5 16a5 5 0 1 0 2.275 9.739z"/></svg>