<svg id="Icons" fill="white" height="512" viewBox="0 0 74 74" width="512" xmlns="http://www.w3.org/2000/svg"><path d="m42.44 72h-2.97a1 1 0 0 1 0-2h2.97a1 1 0 0 1 0 2z"/><path d="m69 72h-19.56a1 1 0 0 1 0-2h19.56a1 1 0 0 0 1-1v-64a1 1 0 0 0 -1-1h-64a1 1 0 0 0 -1 1v64a1 1 0 0 0 1 1h17.56a1 1 0 1 1 0 2h-17.56a3 3 0 0 1 -3-3v-64a3 3 0 0 1 3-3h64a3 3 0 0 1 3 3v64a3 3 0 0 1 -3 3z"/><path d="m32.47 72h-2.91a1 1 0 0 1 0-2h2.91a1 1 0 0 1 0 2z"/><path d="m71 20.01h-68a1 1 0 0 1 0-2h68a1 1 0 0 1 0 2z"/><path d="m11.631 14.672a3.672 3.672 0 1 1 3.669-3.672 3.677 3.677 0 0 1 -3.669 3.672zm0-5.344a1.672 1.672 0 1 0 1.669 1.672 1.674 1.674 0 0 0 -1.669-1.672z"/><path d="m21.458 14.672a3.672 3.672 0 1 1 3.673-3.672 3.676 3.676 0 0 1 -3.673 3.672zm0-5.344a1.672 1.672 0 1 0 1.673 1.672 1.674 1.674 0 0 0 -1.673-1.672z"/><path d="m31.286 14.672a3.672 3.672 0 1 1 3.672-3.672 3.677 3.677 0 0 1 -3.672 3.672zm0-5.344a1.672 1.672 0 1 0 1.672 1.672 1.674 1.674 0 0 0 -1.672-1.672z"/><path d="m65.042 12h-24.542a1 1 0 0 1 0-2h24.542a1 1 0 0 1 0 2z"/><path d="m50.5 64.51h-27a1 1 0 0 1 -1-1v-7.06a8.427 8.427 0 0 1 8.417-8.417 1.292 1.292 0 0 1 .6.148 10.577 10.577 0 0 0 5.483 1.453 10.69 10.69 0 0 0 5.5-1.455 1 1 0 0 1 .521-.146 8.441 8.441 0 0 1 8.479 8.417v7.06a1 1 0 0 1 -1 1zm-26.006-2h25.006v-6.06a6.425 6.425 0 0 0 -6.217-6.414 13.148 13.148 0 0 1 -12.561 0 6.437 6.437 0 0 0 -6.222 6.414z"/><path d="m37.135 46.653a8.615 8.615 0 0 1 -7.954-11.934 1 1 0 0 1 1.846.766 6.619 6.619 0 1 0 12.727 2.558c0-.222.005-.439.009-.655.007-.324.013-.644 0-.979a1 1 0 1 1 2-.067c.012.371.006.727 0 1.086 0 .2-.009.406-.009.615a8.624 8.624 0 0 1 -8.619 8.61z"/><path d="m44.765 37.375a1 1 0 0 1 -.929-.627 8.282 8.282 0 0 0 -2.472-3.42c-1.487 1.08-5.937 3.941-10.284 3.094a8.7 8.7 0 0 1 -5.98-4.785 1 1 0 0 1 1.182-1.432 4.566 4.566 0 0 0 4.466-1.639c.182-.177 3.543-3.374 7.243-3.042a6.075 6.075 0 0 1 4.225 2.376 4.542 4.542 0 0 1 3.657 1.516c1.215 1.536 1.154 4-.18 7.332a1 1 0 0 1 -.928.627zm-16.852-5.119a6.087 6.087 0 0 0 3.551 2.2c4.291.835 9.1-3.031 9.146-3.069a1 1 0 0 1 .96-.171 6.409 6.409 0 0 1 2.968 2.613c.334-1.449.261-2.543-.229-3.169a2.919 2.919 0 0 0 -2.419-.743 1 1 0 0 1 -.954-.405 4.28 4.28 0 0 0 -3.126-2c-2.326-.207-4.854 1.7-5.636 2.449a6.87 6.87 0 0 1 -4.261 2.295z"/><path d="m44.219 64.51h-14.438a1 1 0 0 1 -1-1v-5.041a1 1 0 0 1 2 0v4.041h12.438v-4.041a1 1 0 0 1 2 0v5.041a1 1 0 0 1 -1 1z"/></svg>