<svg id="Icons" fill="white" height="512" viewBox="0 0 74 74" width="512" xmlns="http://www.w3.org/2000/svg"><path d="m40.27 70h2.97v2h-2.97z"/><path d="m69 72h-18.76v-2h18.76a1 1 0 0 0 1-1v-64a1 1 0 0 0 -1-1h-64a1 1 0 0 0 -1 1v64a1 1 0 0 0 1 1h18.37v2h-18.37a3 3 0 0 1 -3-3v-64a3 3 0 0 1 3-3h64a3 3 0 0 1 3 3v64a3 3 0 0 1 -3 3z"/><path d="m30.37 70h2.9v2h-2.9z"/><path d="m3 18h68v2h-68z"/><path d="m61.831 14.169a3.169 3.169 0 1 1 3.169-3.169 3.173 3.173 0 0 1 -3.169 3.169zm0-4.338a1.169 1.169 0 1 0 1.169 1.169 1.171 1.171 0 0 0 -1.169-1.169z"/><path d="m52.719 14.169a3.169 3.169 0 1 1 3.169-3.169 3.173 3.173 0 0 1 -3.169 3.169zm0-4.338a1.169 1.169 0 1 0 1.169 1.169 1.171 1.171 0 0 0 -1.169-1.169z"/><path d="m43.607 14.169a3.169 3.169 0 1 1 3.169-3.169 3.172 3.172 0 0 1 -3.169 3.169zm0-4.338a1.169 1.169 0 1 0 1.169 1.169 1.17 1.17 0 0 0 -1.169-1.169z"/><path d="m34.469 12h-24.469a1 1 0 0 1 0-2h24.469a1 1 0 0 1 0 2z"/><path d="m37 62.333a17.333 17.333 0 1 1 17.333-17.333 17.352 17.352 0 0 1 -17.333 17.333zm0-32.666a15.333 15.333 0 1 0 15.333 15.333 15.35 15.35 0 0 0 -15.333-15.333z"/><path d="m31 52a1 1 0 0 1 -.707-1.707l12-12a1 1 0 0 1 1.414 1.414l-12 12a1 1 0 0 1 -.707.293z"/><path d="m43 52a1 1 0 0 1 -.707-.293l-12-12a1 1 0 0 1 1.414-1.414l12 12a1 1 0 0 1 -.707 1.707z"/></svg>